<mxfile host="app.diagrams.net" agent="Mozilla/5.0 (Windows NT 10.0; Win64; x64) AppleWebKit/537.36 (KHTML, like Gecko) Chrome/131.0.0.0 Safari/537.36" version="24.8.0">
  <diagram name="Page-1" id="e7e014a7-5840-1c2e-5031-d8a46d1fe8dd">
    <mxGraphModel dx="954" dy="618" grid="1" gridSize="10" guides="1" tooltips="1" connect="1" arrows="1" fold="1" page="1" pageScale="1" pageWidth="1169" pageHeight="826" background="none" math="0" shadow="0">
      <root>
        <mxCell id="0" />
        <mxCell id="1" parent="0" />
        <mxCell id="U22Y0B4V3vnqw0XkDeUd-12" style="edgeStyle=orthogonalEdgeStyle;rounded=0;orthogonalLoop=1;jettySize=auto;html=1;entryX=0;entryY=0.5;entryDx=0;entryDy=0;" edge="1" parent="1" source="EFzFJjE9-v-aaqzGh93B-41" target="U22Y0B4V3vnqw0XkDeUd-10">
          <mxGeometry relative="1" as="geometry">
            <Array as="points">
              <mxPoint x="100" y="320" />
              <mxPoint x="100" y="280" />
            </Array>
          </mxGeometry>
        </mxCell>
        <mxCell id="U22Y0B4V3vnqw0XkDeUd-13" style="edgeStyle=orthogonalEdgeStyle;rounded=0;orthogonalLoop=1;jettySize=auto;html=1;entryX=0;entryY=0.5;entryDx=0;entryDy=0;" edge="1" parent="1" source="EFzFJjE9-v-aaqzGh93B-41" target="U22Y0B4V3vnqw0XkDeUd-9">
          <mxGeometry relative="1" as="geometry" />
        </mxCell>
        <mxCell id="EFzFJjE9-v-aaqzGh93B-41" value="Utilisateur" style="shape=umlActor;verticalLabelPosition=bottom;verticalAlign=top;html=1;" parent="1" vertex="1">
          <mxGeometry x="30" y="290" width="30" height="60" as="geometry" />
        </mxCell>
        <mxCell id="U22Y0B4V3vnqw0XkDeUd-14" style="edgeStyle=orthogonalEdgeStyle;rounded=0;orthogonalLoop=1;jettySize=auto;html=1;entryX=0.5;entryY=1;entryDx=0;entryDy=0;" edge="1" parent="1" source="U22Y0B4V3vnqw0XkDeUd-9" target="U22Y0B4V3vnqw0XkDeUd-10">
          <mxGeometry relative="1" as="geometry" />
        </mxCell>
        <mxCell id="U22Y0B4V3vnqw0XkDeUd-9" value="S&#39;inscrire" style="ellipse;whiteSpace=wrap;html=1;" vertex="1" parent="1">
          <mxGeometry x="140" y="330" width="120" height="60" as="geometry" />
        </mxCell>
        <mxCell id="U22Y0B4V3vnqw0XkDeUd-20" style="edgeStyle=orthogonalEdgeStyle;rounded=0;orthogonalLoop=1;jettySize=auto;html=1;entryX=0;entryY=0.5;entryDx=0;entryDy=0;" edge="1" parent="1" source="U22Y0B4V3vnqw0XkDeUd-10" target="U22Y0B4V3vnqw0XkDeUd-16">
          <mxGeometry relative="1" as="geometry" />
        </mxCell>
        <mxCell id="U22Y0B4V3vnqw0XkDeUd-22" style="edgeStyle=orthogonalEdgeStyle;rounded=0;orthogonalLoop=1;jettySize=auto;html=1;entryX=0;entryY=0.5;entryDx=0;entryDy=0;" edge="1" parent="1" source="U22Y0B4V3vnqw0XkDeUd-10" target="U22Y0B4V3vnqw0XkDeUd-19">
          <mxGeometry relative="1" as="geometry" />
        </mxCell>
        <mxCell id="U22Y0B4V3vnqw0XkDeUd-23" style="edgeStyle=orthogonalEdgeStyle;rounded=0;orthogonalLoop=1;jettySize=auto;html=1;entryX=0;entryY=0.5;entryDx=0;entryDy=0;" edge="1" parent="1" source="U22Y0B4V3vnqw0XkDeUd-10" target="U22Y0B4V3vnqw0XkDeUd-17">
          <mxGeometry relative="1" as="geometry" />
        </mxCell>
        <mxCell id="U22Y0B4V3vnqw0XkDeUd-24" style="edgeStyle=orthogonalEdgeStyle;rounded=0;orthogonalLoop=1;jettySize=auto;html=1;entryX=0;entryY=0.5;entryDx=0;entryDy=0;" edge="1" parent="1" source="U22Y0B4V3vnqw0XkDeUd-10" target="U22Y0B4V3vnqw0XkDeUd-18">
          <mxGeometry relative="1" as="geometry" />
        </mxCell>
        <mxCell id="U22Y0B4V3vnqw0XkDeUd-10" value="Se connecter" style="ellipse;whiteSpace=wrap;html=1;" vertex="1" parent="1">
          <mxGeometry x="140" y="250" width="120" height="60" as="geometry" />
        </mxCell>
        <mxCell id="U22Y0B4V3vnqw0XkDeUd-16" value="CRUD&lt;div&gt;Calendrier&lt;/div&gt;" style="ellipse;whiteSpace=wrap;html=1;" vertex="1" parent="1">
          <mxGeometry x="310" y="100" width="120" height="60" as="geometry" />
        </mxCell>
        <mxCell id="U22Y0B4V3vnqw0XkDeUd-17" value="Ouvrir une case" style="ellipse;whiteSpace=wrap;html=1;" vertex="1" parent="1">
          <mxGeometry x="310" y="300" width="120" height="60" as="geometry" />
        </mxCell>
        <mxCell id="U22Y0B4V3vnqw0XkDeUd-18" value="Se dÃ©connecter" style="ellipse;whiteSpace=wrap;html=1;" vertex="1" parent="1">
          <mxGeometry x="310" y="390" width="120" height="60" as="geometry" />
        </mxCell>
        <mxCell id="U22Y0B4V3vnqw0XkDeUd-19" value="Partager un&lt;div&gt;Calendrier&lt;/div&gt;" style="ellipse;whiteSpace=wrap;html=1;" vertex="1" parent="1">
          <mxGeometry x="310" y="200" width="120" height="60" as="geometry" />
        </mxCell>
      </root>
    </mxGraphModel>
  </diagram>
</mxfile>
